#!OML:ASF E:\Steps\Project 1\Capture day 1\Session 2\Subject.ASF
:FULLY-SPECIFIED
:DEGREES
343
root 3.90947 17.1101 16.3046 -152.944 -1.86365 176.126
lowerback -29.9537 -2.93599 -8.5126
upperback -0.760484 -1.47057 -0.620722
thorax 15.058 -1.48736 3.27382
lowerneck 0.795595 -2.00885 0.277975
upperneck 7.30035 -3.09927 2.03743
head 2.18016 -1.60345 0.537738
rclavicle 7.10655e-015 5.96354e-015
rhumerus -37.1467 -18.0839 -77.56
rradius 32.2055
rwrist -4.94776
rhand -3.34903 -54.929
rfingers 7.12502
rthumb 22.379 -83.6528
lclavicle 7.10655e-015 5.96354e-015
lhumerus -30.6368 4.26637 79.7893
lradius 24.401
lwrist -2.51341
lhand -21.416 -12.3735
lfingers 7.12502
lthumb 4.97273 17.5482
rfemur -22.7942 3.37458 19.165
rtibia 5.64182
rfoot -17.9788 -2.83262
rtoes -12.6227
lfemur -23.9264 -7.09119 -23.445
ltibia 6.26404
lfoot -5.67015 -3.74356
ltoes -27.0074
344
root 3.90746 17.11 16.2992 -152.922 -1.98689 176.059
lowerback -30.0746 -2.96384 -8.56538
upperback -0.769484 -1.47857 -0.661725
thorax 15.1014 -1.49729 3.24918
lowerneck 0.202847 -1.96787 0.213149
upperneck 7.7276 -3.0741 2.1706
head 2.43131 -1.58389 0.583018
rclavicle -8.44835e-016 -2.94201e-014
rhumerus -36.9571 -18.001 -77.7554
rradius 32.3533
rwrist -4.96269
rhand -3.22485 -54.7449
rfingers 7.12502
rthumb 22.4982 -83.4543
lclavicle -8.44835e-016 -2.94201e-014
lhumerus -30.5321 4.17986 79.8671
lradius 24.1658
lwrist -2.68133
lhand -21.1632 -12.2076
lfingers 7.12502
lthumb 5.21681 17.7082
rfemur -22.8139 3.38021 19.1036
rtibia 5.75037
rfoot -18.1052 -2.94355
rtoes -12.4345
lfemur -24.016 -6.94092 -23.5598
ltibia 6.42778
lfoot -5.60604 -4.11916
ltoes -26.3884
345
root 3.90412 17.1087 16.2932 -152.834 -2.04379 176.012
lowerback -29.7934 -2.94819 -8.68403
upperback -1.11465 -1.5152 -0.623746
thorax 14.5721 -1.51462 3.3484
lowerneck 0.645898 -2.09264 0.251514
upperneck 6.96132 -3.18586 2.15553
head 2.09964 -1.63618 0.578
rclavicle -8.44835e-016 8.74653e-015
rhumerus -37.2098 -17.8161 -77.6409
rradius 32.4235
rwrist -4.99984
rhand -2.74146 -54.7761
rfingers 7.12502
rthumb 22.9621 -83.4286
lclavicle -8.44835e-016 8.74653e-015
lhumerus -30.9 4.16405 80.0034
lradius 23.9359
lwrist -3.17983
lhand -21.0666 -12.281
lfingers 7.12502
lthumb 5.31009 17.6325
rfemur -22.9037 3.33272 19.063
rtibia 5.824
rfoot -18.1881 -2.98088
rtoes -12.6586
lfemur -24.1605 -6.78612 -23.6583
ltibia 6.56305
lfoot -5.56142 -4.45098
ltoes -25.0993
346
root 3.89521 17.1098 16.2839 -152.881 -2.16318 175.964
lowerback -29.765 -2.96032 -8.64185
upperback -1.18014 -1.56001 -0.629802
thorax 14.4871 -1.53068 3.30211
lowerneck 0.554856 -2.02172 0.298662
upperneck 6.87779 -3.06118 1.89336
head 2.08081 -1.57362 0.489266
rclavicle -1.04362e-015 9.93923e-015
rhumerus -37.048 -17.7303 -77.6936
rradius 32.4604
rwrist -5.06286
rhand -2.46919 -55.4983
rfingers 7.12502
rthumb 23.2233 -84.1181
lclavicle -1.04362e-015 9.93923e-015
lhumerus -30.9332 4.2137 80.1009
lradius 23.6779
lwrist -3.55801
lhand -21.1653 -12.2331
lfingers 7.12502
lthumb 5.21471 17.6828
rfemur -22.7488 3.22733 19.0163
rtibia 5.73906
rfoot -18.2289 -3.05209
rtoes -13.2967
lfemur -24.0947 -6.95612 -23.7092
ltibia 6.6158
lfoot -5.5945 -4.49173
ltoes -24.3215
347
root 3.88253 17.1143 16.2719 -153.121 -2.36046 175.876
lowerback -29.7841 -3.01663 -8.62921
upperback -1.06446 -1.61034 -0.631358
thorax 14.6381 -1.55217 3.27282
lowerneck 0.586388 -1.96056 0.206591
upperneck 6.38137 -2.93444 1.85534
head 1.91322 -1.5054 0.497802
rclavicle 1.65488e-014 -5.04913e-014
rhumerus -36.7255 -17.602 -77.7914
rradius 32.5167
rwrist -5.33412
rhand -2.56412 -55.8109
rfingers 7.12502
rthumb 23.1322 -84.4421
lclavicle 1.65488e-014 -5.04913e-014
lhumerus -30.7814 4.45895 80.1885
lradius 23.3742
lwrist -3.75463
lhand -21.1972 -12.0621
lfingers 7.12502
lthumb 5.18396 17.8545
rfemur -22.3349 3.10705 18.9159
rtibia 5.61032
rfoot -18.2753 -3.18529
rtoes -13.4726
lfemur -23.7633 -7.36032 -23.7793
ltibia 6.57943
lfoot -5.65877 -4.37536
ltoes -23.787
348
root 3.87569 17.1163 16.263 -153.265 -2.44583 175.876
lowerback -29.741 -3.00548 -8.59551
upperback -1.07573 -1.60938 -0.653366
thorax 14.6041 -1.54762 3.23268
lowerneck 0.18182 -2.00251 0.103748
upperneck 6.68059 -3.01831 2.08702
head 2.08962 -1.54201 0.580884
rclavicle -2.43014e-014 -1.43125e-014
rhumerus -36.539 -17.6101 -77.8722
rradius 32.4573
rwrist -5.43437
rhand -2.78712 -55.3916
rfingers 7.12502
rthumb 22.9183 -84.0496
lclavicle -2.43014e-014 -1.43125e-014
lhumerus -30.7245 4.80327 80.1326
lradius 23.0231
lwrist -3.99257
lhand -20.8994 -12.1928
lfingers 7.12502
lthumb 5.47148 17.7166
rfemur -22.0622 3.22338 18.8778
rtibia 5.47243
rfoot -18.2541 -3.37493
rtoes -13.4888
lfemur -23.5422 -7.4889 -23.7835
ltibia 6.51906
lfoot -5.74685 -4.24194
ltoes -24.5421
349
root 3.8721 17.1149 16.2577 -153.247 -2.45664 175.923
lowerback -29.7129 -2.97559 -8.56461
upperback -1.18561 -1.60642 -0.6468
thorax 14.4617 -1.54361 3.22564
lowerneck 0.451819 -2.05405 0.282759
upperneck 5.90988 -3.03468 2.03201
head 1.78765 -1.54261 0.539534
rclavicle -1.15295e-014 1.98785e-015
rhumerus -36.4956 -17.6277 -77.9354
rradius 32.4845
rwrist -5.26008
rhand -2.90985 -55.1335
rfingers 7.12502
rthumb 22.8005 -83.806
lclavicle -1.15295e-014 1.98785e-015
lhumerus -30.714 5.25888 80.0443
lradius 22.6817
lwrist -4.56455
lhand -20.3977 -12.5256
lfingers 7.12502
lthumb 5.95584 17.3707
rfemur -22.0725 3.48232 18.8751
rtibia 5.49859
rfoot -18.2597 -3.62149
rtoes -13.6092
lfemur -23.5414 -7.4152 -23.7534
ltibia 6.49599
lfoot -5.74471 -4.23699
ltoes -25.0026
350
root 3.86591 17.112 16.25 -153.187 -2.42868 175.943
lowerback -30.0378 -2.92494 -8.50663
upperback -1.1261 -1.52046 -0.689164
thorax 14.6656 -1.50944 3.17146
lowerneck -0.0443307 -1.94488 0.386465
upperneck 6.21017 -2.89273 1.89808
head 1.96648 -1.46592 0.476025
rclavicle -1.65985e-014 1.78906e-014
rhumerus -36.2701 -17.7242 -78.0806
rradius 32.5791
rwrist -5.15874
rhand -2.89786 -55.2659
rfingers 7.12502
rthumb 22.812 -83.937
lclavicle -1.65985e-014 1.78906e-014
lhumerus -30.4831 5.41805 80.0921
lradius 22.4282
lwrist -4.9466
lhand -20.1782 -12.3535
lfingers 7.12502
lthumb 6.16778 17.5367
rfemur -22.1653 3.54948 18.8612
rtibia 5.62312
rfoot -18.3227 -3.69068
rtoes -13.7469
lfemur -23.6045 -7.39637 -23.7636
ltibia 6.54523
lfoot -5.76549 -4.30382
ltoes -24.9733
351
root 3.86168 17.1109 16.241 -153.198 -2.41784 175.981
lowerback -29.9958 -2.86145 -8.45615
upperback -1.29329 -1.49146 -0.706946
thorax 14.4453 -1.49218 3.13815
lowerneck -0.0804054 -1.89099 0.340503
upperneck 6.13395 -2.80964 1.85721
head 1.94732 -1.42425 0.472451
rclavicle 1.98785e-015 3.49861e-014
rhumerus -36.2967 -17.6633 -78.0909
rradius 32.5399
rwrist -5.27178
rhand -2.94201 -55.2728
rfingers 7.12502
rthumb 22.7696 -83.949
lclavicle 1.98785e-015 3.49861e-014
lhumerus -30.7111 5.35395 80.1744
lradius 22.3111
lwrist -4.88577
lhand -20.1843 -11.9575
lfingers 7.12502
lthumb 6.16187 17.9329
rfemur -22.111 3.70413 18.863
rtibia 5.60463
rfoot -18.3319 -3.84392
rtoes -13.9096
lfemur -23.5886 -7.42162 -23.7338
ltibia 6.6189
lfoot -5.83528 -4.39221
ltoes -24.6217
